PathFileType	4	(X/Y/Z)	RBDS015\RBDS015runT45.trc
DataRate	CameraRate	NumFrames	NumMarkers	Units	OrigDataRate	OrigDataStartFrame	OrigNumFrames
150.000000	150.000000	5	33	mm	150.000000	3375	4500
Frame#	Time	L.ASIS			L.Heel.Bottom			L.Heel.Lateral			L.Heel.Top			L.Iliac.Crest			L.MT1			L.MT5			L.PSIS			L.Shank.Bottom.Lateral			L.Shank.Bottom.Medial			L.Shank.Top.Lateral			L.Shank.Top.Medial			L.Thigh.Bottom.Lateral			L.Thigh.Bottom.Medial			L.Thigh.Top.Lateral			L.Thigh.Top.Medial			R.ASIS			R.ASY			R.Heel.Bottom			R.Heel.Lateral			R.Heel.Top			R.Iliac.Crest			R.MT1			R.MT5			R.PSIS			R.Shank.Bottom.Lateral			R.Shank.Bottom.Medial			R.Shank.Top.Lateral			R.Shank.Top.Medial			R.Thigh.Bottom.Lateral			R.Thigh.Bottom.Medial			R.Thigh.Top.Lateral			R.Thigh.Top.Medial			
		X1	Y1	Z1	X2	Y2	Z2	X3	Y3	Z3	X4	Y4	Z4	X5	Y5	Z5	X6	Y6	Z6	X7	Y7	Z7	X8	Y8	Z8	X9	Y9	Z9	X10	Y10	Z10	X11	Y11	Z11	X12	Y12	Z12	X13	Y13	Z13	X14	Y14	Z14	X15	Y15	Z15	X16	Y16	Z16	X17	Y17	Z17	X18	Y18	Z18	X19	Y19	Z19	X20	Y20	Z20	X21	Y21	Z21	X22	Y22	Z22	X23	Y23	Z23	X24	Y24	Z24	X25	Y25	Z25	X26	Y26	Z26	X27	Y27	Z27	X28	Y28	Z28	X29	Y29	Z29	X30	Y30	Z30	X31	Y31	Z31	X32	Y32	Z32	X33	Y33	Z33	

3376	22.5	2262.532885665719	1048.742937617546	928.3780667179932	2055.242923549789	175.878595829031	999.8519188292333	2081.000427430804	181.8025564350739	955.9257315045329	2082.244272576184	208.603258700922	1000.088484132102	2176.47204918747	1141.833860485709	893.4244200109197	2250.341657644837	88.71308782162612	1013.816364328877	2205.987615119793	97.48335033117654	908.5370075258991	2086.434638301661	1102.561250332784	997.6480032612733	2195.634183501777	287.6526718476287	930.4192557380928	2157.234848897762	309.5624499015943	956.0247031956457	2231.138178639824	359.3677150981952	916.0836283516243	2193.79017721635	385.4028753762923	943.8241338156008	2347.456510465153	711.6659239045227	882.7120762644373	2293.088695049432	677.6811502275486	905.3093415158844	2285.326139254796	801.6351582877276	866.340077444674	2227.916487080017	765.0587134111346	890.6403355356722	2259.212460264771	1025.66240375954	1150.898722891878	1775.43990014073	96.1140918689769	1096.293833542464	1620.777009072466	197.2453050994353	1063.871537771137	1646.093948587576	189.7735823516403	1109.915919634105	1659.061937475255	221.7258722371584	1071.322715933917	2216.631223440107	1120.687978257091	1193.430714547243	1767.813691220502	52.68236813001938	1046.321487285091	1718.895216148435	70.7332506371032	1154.414745598431	2089.41696767919	1100.910889273764	1091.813551501352	1769.195085780478	266.956280626542	1134.576102146325	1731.620929622636	294.2022378331698	1103.96834317532	1810.029177461505	337.394418264223	1145.830057856757	1772.416839899311	362.9152332918487	1115.953127402834	2042.824950428918	701.5492931584783	1178.36321375662	1988.392540026995	720.8940006554783	1133.572307390352	2065.998883332639	807.7416038111525	1191.210205230071	2015.409676604261	826.2913947788263	1147.028727574703	
3377	22.50666666666667	2264.899542137709	1052.651915735244	928.8523691684334	2089.174313101841	155.7077486502475	1002.445880641749	2114.149463135964	163.3580044658842	958.3095858329639	2113.485351508571	190.4603981091474	1002.262118636437	2177.902194689254	1147.283899683482	892.9036072205531	2290.566697272758	84.3234777791701	1016.176754991612	2245.118470453121	88.77871920835115	910.9754061394909	2088.762287900048	1107.172385807892	998.1216164962116	2220.100692227884	278.06264076188	932.0465420947245	2180.49586591182	297.1284335217763	958.0249670289949	2250.102310572447	352.1212258472355	917.3819344137347	2211.234213182777	375.4747544669015	945.3956967666163	2347.746272572766	714.8006829777798	884.3190897587046	2293.420128469665	680.9559191011219	907.3252461800622	2285.558591665269	804.6999196013102	867.6553519217366	2228.249638691129	768.3715644995139	892.6438822879915	2261.642451269382	1028.420082404787	1150.653266255108	1755.597346277289	101.9768636604704	1098.563086581575	1607.772827028331	214.7760957686417	1068.210745448984	1633.025656805696	204.9458265098716	1113.962091207529	1647.948483100955	236.2898304718362	1075.610689573226	2221.153674473342	1124.990167886732	1193.063918466026	1744.309879955218	58.81986737649706	1048.294774318134	1697.671956751731	79.63775590622078	1156.437444067326	2092.297733140278	1104.872058957812	1092.493848482733	1756.418518012583	276.8379346082754	1137.750092811359	1718.919021658047	304.0785283235353	1107.00336176793	1797.80109023201	347.1934707093066	1148.111946286502	1760.281193872333	372.6067473789005	1118.036661359883	2037.093650578944	708.3190442828716	1177.778645481639	1983.167051281452	729.3991345926019	1132.972846137078	2063.621012474446	813.8298177585134	1190.873079151564	2013.584159171731	833.9754642006328	1146.571819769627	
3378	22.51333333333334	2267.195357651284	1056.193673760683	929.3442375002921	2124.101536457268	136.9688791495256	1004.644516769014	2148.271047751598	146.2892917290937	960.3496157284118	2145.537933368491	173.534219694373	1004.066686110764	2179.78566586759	1152.375842152909	892.1564596512364	2330.410426757432	81.95377895505365	1018.579437770503	2284.538866224854	81.98211912607647	913.3546721015291	2090.996213105463	1111.550004331488	998.6227925886982	2244.720148575209	269.2564749386364	933.4416770579061	2204.153259609678	285.3943517448972	959.8220716659854	2269.083248113091	345.2049672066705	918.4792845694531	2228.911378375802	365.7745584762196	946.7749811451553	2347.200476450039	716.9192498966069	885.7337187427387	2292.896091693699	683.2737565698807	909.1812043235674	2285.042990306529	806.8303358656487	868.8664517688206	2227.827485674913	770.8257186053841	894.587169573368	2264.016983078539	1030.860536771661	1150.293614258297	1736.432888624708	109.2940702483771	1100.566649254005	1595.487465508953	232.4312408102066	1072.269534401292	1620.629557274086	220.5231505252244	1117.692405555217	1637.297385240513	251.0849737049965	1079.461399962868	2225.32960844645	1129.060251058279	1192.574959745333	1721.78747082406	66.40367327882765	1050.231949152256	1677.471176945234	89.93539781420652	1158.403857482988	2095.082676515706	1108.736417287304	1093.17944611574	1744.286237880559	286.9757772146258	1140.589066430315	1706.971170213441	314.430078554979	1109.803275804133	1786.472915147766	357.0161522451926	1150.176507140084	1749.15850297551	382.5469537160287	1120.011786980415	2032.308886881596	714.6621012200419	1177.391265061502	1978.838358217987	737.2285030364142	1132.577171306392	2061.799250686927	819.5135364087027	1190.637373429049	2012.273316146134	841.0329954799067	1146.230733763788	
3379	22.52	2269.304471060239	1059.321883745385	929.8019371088211	2159.687262031412	119.8914415928645	1006.430862874988	2183.046506092053	130.820489442516	962.0292496355994	2178.096064690772	158.027849472402	1005.490313429579	2182.009243264005	1156.975599738397	891.2451472052617	2369.470206848354	81.67550473441599	1021.007019094225	2323.878497548199	77.24812693710336	915.6650962481402	2093.076101196025	1115.635585296106	999.178101018261	2269.269747532598	261.3858202967477	934.6055867705727	2227.975374350777	274.53327857653	961.4033952164606	2287.913141907939	338.7640450393377	919.3827631346085	2246.654769946691	356.4590268365631	947.9647912495921	2345.909706867683	718.0562898956342	886.868347729002	2291.642385974058	684.6794411639261	910.841948680674	2283.853418844052	808.0393752270387	869.8648679472793	2226.754856963211	772.4397480475267	896.4044820738618	2266.311683506589	1032.970959114901	1149.79702495379	1717.890106790883	118.1068490271635	1102.260624043329	1583.665858133623	250.1496466401067	1075.880418526368	1608.644111483707	236.4528556433648	1120.967690497896	1626.832581076042	266.1138679291538	1082.748558622767	2229.171422201817	1132.8105722034	1191.961445485713	1700.239118339176	75.48867132024829	1052.038679226265	1658.201633650906	101.5861255334935	1160.22475608126	2097.739209822134	1112.465738360798	1093.911577317793	1732.629665564888	297.4073557955156	1143.020646406048	1695.654651012507	325.3283801900759	1112.286720064909	1775.92786441558	366.8440959993988	1151.984440027232	1738.965879868967	392.7589288705441	1121.83996340523	2028.544429594495	720.4096137255717	1177.244412123582	1975.453927136341	744.2078156163401	1132.443167672	2060.573855552577	824.6529806433898	1190.546771253635	2011.477825811952	847.3189453974747	1146.078394463772	
3380	22.52666666666667	2271.117296441279	1061.96854182259	930.1764526187023	2195.524758399964	104.658020451766	1007.812423683368	2218.080176579445	117.1258350260972	963.3508413150538	2210.789424058823	144.1035878762191	1006.538949966496	2184.447149819435	1160.951935150686	890.2402241544546	2407.314959055162	83.48957040773493	1023.432833093396	2362.69979546036	74.65296322764404	917.8976441586241	2094.952636984566	1119.367407652767	999.7959093182677	2293.487819192662	254.5677000644447	935.5488076383701	2251.684394328913	264.6886654756739	962.7609999554485	2306.390448634541	332.9233024554533	920.1070172260656	2264.258479185828	347.6700211057562	948.9714594212315	2343.977589910955	718.2776884819217	887.6531159093579	2289.797779354242	685.2539102642231	912.2939507318599	2282.082812782609	808.3750368013572	870.558418541644	2225.152861041529	773.2707706827713	898.0483048805435	2268.508021275143	1034.746965457937	1149.155243632638	1699.931474197498	128.3849703153315	1103.615526566946	1572.135968817528	267.9075567152829	1078.905313477558	1596.883727936009	252.6989742656522	1123.677176507058	1616.378967855474	281.3908121637052	1085.380379858653	2232.706130924082	1136.169988775953	1191.225666592876	1679.650711651263	86.06980855689761	1053.622265428249	1639.770790752287	114.5096276633798	1161.811141239867	2100.237730127351	1116.012990775343	1094.710826441004	1721.33835199207	308.1564535336168	1145.001079867653	1684.8963982802	336.812960323566	1114.396147180338	1766.082527260509	376.6594523357567	1153.517502557754	1729.647857050005	403.2462041483601	1123.494992708105	2025.854615898272	725.4067646387522	1177.376090404735	1973.048096926551	750.1829318181914	1132.619235356014	2059.975905821553	829.1191351137876	1190.64593387611	2011.196143507864	852.7041605442627	1146.181971450129	
